<?xml version="1.0" encoding="UTF-8" standalone="no"?>
<!-- Created with Inkscape (http://www.inkscape.org/) -->

<svg
   xmlns:dc="http://purl.org/dc/elements/1.1/"
   xmlns:cc="http://creativecommons.org/ns#"
   xmlns:rdf="http://www.w3.org/1999/02/22-rdf-syntax-ns#"
   xmlns:svg="http://www.w3.org/2000/svg"
   xmlns="http://www.w3.org/2000/svg"
   xmlns:sodipodi="http://sodipodi.sourceforge.net/DTD/sodipodi-0.dtd"
   xmlns:inkscape="http://www.inkscape.org/namespaces/inkscape"
   width="210mm"
   height="297mm"
   viewBox="0 0 210 297"
   version="1.1"
   id="svg8"
   inkscape:version="0.92.4 (5da689c313, 2019-01-14)"
   sodipodi:docname="doll_dress_1.svg">
  <defs
     id="defs2">
    <inkscape:perspective
       sodipodi:type="inkscape:persp3d"
       inkscape:vp_x="0 : 148.5 : 1"
       inkscape:vp_y="0 : 1000 : 0"
       inkscape:vp_z="210 : 148.5 : 1"
       inkscape:persp3d-origin="105 : 99 : 1"
       id="perspective841" />
  </defs>
  <sodipodi:namedview
     id="base"
     pagecolor="#ffffff"
     bordercolor="#666666"
     borderopacity="1.0"
     inkscape:pageopacity="0.0"
     inkscape:pageshadow="2"
     inkscape:zoom="1.4"
     inkscape:cx="296.60471"
     inkscape:cy="835.51839"
     inkscape:document-units="mm"
     inkscape:current-layer="layer2"
     showgrid="false"
     inkscape:window-width="1920"
     inkscape:window-height="1057"
     inkscape:window-x="-8"
     inkscape:window-y="-8"
     inkscape:window-maximized="1" />
  <metadata
     id="metadata5">
    <rdf:RDF>
      <cc:Work
         rdf:about="">
        <dc:format>image/svg+xml</dc:format>
        <dc:type
           rdf:resource="http://purl.org/dc/dcmitype/StillImage" />
        <dc:title />
      </cc:Work>
    </rdf:RDF>
  </metadata>
  <g
     inkscape:groupmode="layer"
     id="layer2"
     inkscape:label="Layer 2">
    <path
       style="fill:none;stroke:#000000;stroke-width:0.26458332px;stroke-linecap:butt;stroke-linejoin:miter;stroke-opacity:1"
       d="m 157.30428,100.4635 c 9.31305,0.0978 12.29772,-0.885465 17.57589,-6.614574 l 10.77232,6.047609 c -7.1008,9.671455 -5.08494,15.038885 2.07887,16.441965 -7.11491,20.37831 -0.67639,18.98916 2.26786,54.80655 l -32.88393,-0.37798 z"
       id="path849"
       inkscape:connector-curvature="0"
       sodipodi:nodetypes="ccccccc" />
    <path
       style="fill:none;stroke:#000000;stroke-width:0.26458332px;stroke-linecap:butt;stroke-linejoin:miter;stroke-opacity:1"
       d="m 25.89137,98.56249 11.90625,-6.236597 c 2.109954,4.575807 4.255228,9.231537 9.827379,9.449397 l 0.188989,68.98065 -28.537202,0.18899 c 0.063,-32.19098 8.267629,-46.46519 3.401786,-56.31845 8.460327,-1.99585 6.639732,-9.74723 3.212798,-16.06399 z"
       id="path851"
       inkscape:connector-curvature="0"
       sodipodi:nodetypes="ccccccc" />
    <path
       style="fill:none;stroke:#000000;stroke-width:0.26458332px;stroke-linecap:butt;stroke-linejoin:miter;stroke-opacity:1"
       d="m 84.288695,14.273809 c 7.45921,0.112573 11.99566,7.264202 19.843745,9.071428 l -5.669645,30.616072 -15.969493,-0.09449 z"
       id="path872"
       inkscape:connector-curvature="0"
       sodipodi:nodetypes="ccccc" />
    <path
       style="fill:none;stroke:#000000;stroke-width:0.26458332px;stroke-linecap:butt;stroke-linejoin:miter;stroke-opacity:1"
       d="m 147.81783,100.24209 c -9.31305,0.0978 -12.29772,-0.885471 -17.57589,-6.61458 l -10.77233,6.047609 c 7.10081,9.671461 5.08495,15.038891 -2.07886,16.441971 7.11491,20.37831 0.67638,18.98916 -2.26786,54.80655 l 32.88393,-0.37798 z"
       id="path849-2"
       inkscape:connector-curvature="0"
       sodipodi:nodetypes="ccccccc" />
    <path
       style="fill:none;stroke:#000000;stroke-width:0.26458332px;stroke-linecap:butt;stroke-linejoin:miter;stroke-opacity:1"
       d="m 79.490283,98.538397 -11.90625,-6.236606 c -2.109954,4.575808 -4.255228,9.231549 -9.827379,9.449409 l -0.188989,68.98064 28.537202,0.189 c -0.063,-32.19099 -8.267629,-46.46519 -3.401786,-56.31845 -8.460327,-1.99585 -6.639732,-9.74723 -3.212798,-16.063993 z"
       id="path851-6"
       inkscape:connector-curvature="0"
       sodipodi:nodetypes="ccccccc" />
    <path
       style="fill:none;stroke:#000000;stroke-width:0.26458332px;stroke-linecap:butt;stroke-linejoin:miter;stroke-opacity:1"
       d="M 60.661204,53.771999 56.692453,23.533903 C 63.261099,21.258177 70.50658,14.321569 78.42609,14.273487 l -1.795393,39.593009 z"
       id="path872-0"
       inkscape:connector-curvature="0"
       sodipodi:nodetypes="ccccc" />
    <path
       style="fill:none;stroke:#000000;stroke-width:0.26458332px;stroke-linecap:butt;stroke-linejoin:miter;stroke-opacity:1"
       d="m 169.42447,53.441636 3.96875,-30.238095 c -6.56864,-2.275726 -13.81412,-9.212334 -21.73364,-9.260416 l 1.7954,39.59301 z"
       id="path872-0-6"
       inkscape:connector-curvature="0"
       sodipodi:nodetypes="ccccc" />
    <path
       style="fill:none;stroke:#000000;stroke-width:0.26458332px;stroke-linecap:butt;stroke-linejoin:miter;stroke-opacity:1"
       d="m 143.15512,14.132113 c -7.45921,0.112573 -11.99566,7.264202 -19.84374,9.071428 l 5.66964,30.616074 15.9695,-0.09449 z"
       id="path872-6"
       inkscape:connector-curvature="0"
       sodipodi:nodetypes="ccccc" />
  </g>
</svg>
