<?xml version="1.0" encoding="UTF-8" standalone="no"?>
<!-- Created with Inkscape (http://www.inkscape.org/) -->

<svg
   xmlns:dc="http://purl.org/dc/elements/1.1/"
   xmlns:cc="http://creativecommons.org/ns#"
   xmlns:rdf="http://www.w3.org/1999/02/22-rdf-syntax-ns#"
   xmlns:svg="http://www.w3.org/2000/svg"
   xmlns="http://www.w3.org/2000/svg"
   xmlns:sodipodi="http://sodipodi.sourceforge.net/DTD/sodipodi-0.dtd"
   xmlns:inkscape="http://www.inkscape.org/namespaces/inkscape"
   width="210mm"
   height="297mm"
   viewBox="0 0 210 297"
   version="1.1"
   id="svg8"
   inkscape:version="0.92.4 (5da689c313, 2019-01-14)"
   sodipodi:docname="doll_dress_2.svg">
  <defs
     id="defs2">
    <inkscape:perspective
       sodipodi:type="inkscape:persp3d"
       inkscape:vp_x="0 : 148.5 : 1"
       inkscape:vp_y="0 : 1000 : 0"
       inkscape:vp_z="210 : 148.5 : 1"
       inkscape:persp3d-origin="105 : 99 : 1"
       id="perspective841" />
  </defs>
  <sodipodi:namedview
     id="base"
     pagecolor="#ffffff"
     bordercolor="#666666"
     borderopacity="1.0"
     inkscape:pageopacity="0.0"
     inkscape:pageshadow="2"
     inkscape:zoom="1.4"
     inkscape:cx="296.60471"
     inkscape:cy="778.37553"
     inkscape:document-units="mm"
     inkscape:current-layer="layer2"
     showgrid="false"
     inkscape:window-width="1920"
     inkscape:window-height="1057"
     inkscape:window-x="-8"
     inkscape:window-y="-8"
     inkscape:window-maximized="1" />
  <metadata
     id="metadata5">
    <rdf:RDF>
      <cc:Work
         rdf:about="">
        <dc:format>image/svg+xml</dc:format>
        <dc:type
           rdf:resource="http://purl.org/dc/dcmitype/StillImage" />
        <dc:title></dc:title>
      </cc:Work>
    </rdf:RDF>
  </metadata>
  <g
     inkscape:groupmode="layer"
     id="layer2"
     inkscape:label="Layer 2">
    <path
       style="fill:none;stroke:#000000;stroke-width:0.26458332px;stroke-linecap:butt;stroke-linejoin:miter;stroke-opacity:1"
       d="m 157.30428,100.4635 c 9.31305,0.0978 12.29772,-0.885465 17.57589,-6.614574 l 10.77232,6.047609 c -3.5504,4.835725 -4.82163,8.595445 -4.30979,11.321625 0.51184,2.72617 2.80676,4.4188 6.38866,5.12034 -7.11491,20.37831 -0.67639,18.98916 2.26786,54.80655 l -32.88393,-0.37798 z"
       id="path849"
       inkscape:connector-curvature="0"
       sodipodi:nodetypes="cccscccc" />
    <path
       style="fill:none;stroke:#000000;stroke-width:0.26458332px;stroke-linecap:butt;stroke-linejoin:miter;stroke-opacity:1"
       d="m 25.89137,98.56249 11.90625,-6.236597 c 2.109954,4.575807 4.255228,9.231537 9.827379,9.449397 l 0.188989,68.98065 -28.537202,0.18899 c 0.063,-32.19098 8.267629,-46.46519 3.401786,-56.31845 4.230163,-0.99792 5.890096,-3.43473 6.064122,-6.41165 0.174025,-2.97692 -1.137857,-6.49396 -2.851324,-9.65234 z"
       id="path851"
       inkscape:connector-curvature="0"
       sodipodi:nodetypes="ccccccsc" />
    <path
       style="fill:none;stroke:#000000;stroke-width:0.26458332px;stroke-linecap:butt;stroke-linejoin:miter;stroke-opacity:1"
       d="m 84.288695,14.273809 c 3.729605,0.05629 6.72852,1.872337 9.776044,3.900219 3.047525,2.027882 6.143661,4.267596 10.067701,5.171209 l -5.669645,30.616072 -15.969493,-0.09449 z"
       id="path872"
       inkscape:connector-curvature="0"
       sodipodi:nodetypes="cscccc" />
    <path
       style="fill:none;stroke:#000000;stroke-width:0.26458332px;stroke-linecap:butt;stroke-linejoin:miter;stroke-opacity:1"
       d="m 147.81783,100.24209 c -9.31305,0.0978 -12.29772,-0.885471 -17.57589,-6.61458 l -10.77233,6.047609 c 3.55041,4.835731 4.82164,8.595451 4.3098,11.321631 -0.51184,2.72617 -2.80675,4.4188 -6.38866,5.12034 7.11491,20.37831 0.67638,18.98916 -2.26786,54.80655 l 32.88393,-0.37798 z"
       id="path849-2"
       inkscape:connector-curvature="0"
       sodipodi:nodetypes="cccscccc" />
    <path
       style="fill:none;stroke:#000000;stroke-width:0.26458332px;stroke-linecap:butt;stroke-linejoin:miter;stroke-opacity:1"
       d="m 79.490283,98.538397 -11.90625,-6.236606 c -2.109954,4.575808 -4.255228,9.231549 -9.827379,9.449409 l -0.188989,68.98064 28.537202,0.189 c -0.063,-32.19099 -8.267629,-46.46519 -3.401786,-56.31845 -4.230163,-0.99792 -5.890096,-3.43473 -6.064122,-6.41165 -0.174025,-2.97693 1.137857,-6.49396 2.851324,-9.652343 z"
       id="path851-6"
       inkscape:connector-curvature="0"
       sodipodi:nodetypes="ccccccsc" />
    <path
       style="fill:none;stroke:#000000;stroke-width:0.26458332px;stroke-linecap:butt;stroke-linejoin:miter;stroke-opacity:1"
       d="M 60.661204,53.771999 56.692453,23.533903 c 3.284323,-1.137863 6.737855,-3.440946 10.360244,-5.465574 3.62239,-2.024629 7.413638,-3.770801 11.373393,-3.794842 l -1.795393,39.593009 z"
       id="path872-0"
       inkscape:connector-curvature="0"
       sodipodi:nodetypes="ccsccc" />
    <path
       style="fill:none;stroke:#000000;stroke-width:0.26458332px;stroke-linecap:butt;stroke-linejoin:miter;stroke-opacity:1"
       d="m 169.42447,53.441636 3.96875,-30.238095 c -3.28432,-1.137863 -6.73785,-3.440946 -10.36024,-5.465575 -3.62239,-2.024627 -7.41364,-3.7708 -11.3734,-3.794841 l 1.7954,39.59301 z"
       id="path872-0-6"
       inkscape:connector-curvature="0"
       sodipodi:nodetypes="ccsccc" />
    <path
       style="fill:none;stroke:#000000;stroke-width:0.26458332px;stroke-linecap:butt;stroke-linejoin:miter;stroke-opacity:1"
       d="m 143.15512,14.132113 c -3.7296,0.05629 -6.72852,1.872337 -9.77604,3.900219 -3.04753,2.027882 -6.14366,4.267596 -10.0677,5.171209 l 5.66964,30.616074 15.9695,-0.09449 z"
       id="path872-6"
       inkscape:connector-curvature="0"
       sodipodi:nodetypes="cscccc" />
  </g>
</svg>
