<?xml version="1.0" encoding="UTF-8" standalone="no"?>
<!-- Created with Inkscape (http://www.inkscape.org/) -->

<svg
   xmlns:dc="http://purl.org/dc/elements/1.1/"
   xmlns:cc="http://creativecommons.org/ns#"
   xmlns:rdf="http://www.w3.org/1999/02/22-rdf-syntax-ns#"
   xmlns:svg="http://www.w3.org/2000/svg"
   xmlns="http://www.w3.org/2000/svg"
   xmlns:sodipodi="http://sodipodi.sourceforge.net/DTD/sodipodi-0.dtd"
   xmlns:inkscape="http://www.inkscape.org/namespaces/inkscape"
   width="210mm"
   height="297mm"
   viewBox="0 0 210 297"
   version="1.1"
   id="svg8"
   inkscape:version="0.92.4 (5da689c313, 2019-01-14)"
   sodipodi:docname="doll_dress_3.svg">
  <defs
     id="defs2" />
  <sodipodi:namedview
     id="base"
     pagecolor="#ffffff"
     bordercolor="#666666"
     borderopacity="1.0"
     inkscape:pageopacity="0.0"
     inkscape:pageshadow="2"
     inkscape:zoom="0.98994949"
     inkscape:cx="204.39509"
     inkscape:cy="643.16214"
     inkscape:document-units="mm"
     inkscape:current-layer="layer2"
     showgrid="false"
     inkscape:window-width="1920"
     inkscape:window-height="1057"
     inkscape:window-x="-8"
     inkscape:window-y="-8"
     inkscape:window-maximized="1" />
  <metadata
     id="metadata5">
    <rdf:RDF>
      <cc:Work
         rdf:about="">
        <dc:format>image/svg+xml</dc:format>
        <dc:type
           rdf:resource="http://purl.org/dc/dcmitype/StillImage" />
        <dc:title></dc:title>
      </cc:Work>
    </rdf:RDF>
  </metadata>
  <g
     inkscape:groupmode="layer"
     id="layer2"
     inkscape:label="Layer 2">
    <path
       style="fill:none;stroke:#000000;stroke-width:0.26458332px;stroke-linecap:butt;stroke-linejoin:miter;stroke-opacity:1"
       d="m 148.06843,101.70814 c 9.31305,0.0978 12.29772,-0.88547 17.57589,-6.614579 l 10.77232,6.047609 c -7.1008,9.67146 -5.08494,15.03889 2.07887,16.44197 -7.11491,20.37831 -0.67639,18.98916 2.26786,54.80655 l -32.88393,-0.37798 z"
       id="path849"
       inkscape:connector-curvature="0"
       sodipodi:nodetypes="ccccccc" />
    <path
       style="fill:none;stroke:#000000;stroke-width:0.26458332px;stroke-linecap:butt;stroke-linejoin:miter;stroke-opacity:1"
       d="m 26.647322,101.20833 11.90625,-6.236604 c 2.109954,4.575808 4.255228,9.231544 9.827379,9.449404 l 0.188989,68.98065 -28.537202,0.18899 c 0.063,-32.19098 8.267629,-46.46519 3.401786,-56.31845 8.460327,-1.99585 6.639732,-9.74723 3.212798,-16.06399 z"
       id="path851"
       inkscape:connector-curvature="0"
       sodipodi:nodetypes="ccccccc" />
    <path
       style="fill:none;stroke:#000000;stroke-width:0.26458332px;stroke-linecap:butt;stroke-linejoin:miter;stroke-opacity:1"
       d="M 41.56125,85.029424 37.592499,54.791329 c 6.568646,-2.275726 13.814127,-9.212333 21.733635,-9.260416 7.45921,0.112573 11.99566,7.264202 19.84374,9.071428 l -5.66964,30.616072 z"
       id="path872"
       inkscape:connector-curvature="0"
       sodipodi:nodetypes="cccccc" />
    <path
       style="fill:none;stroke:#000000;stroke-width:0.26458332px;stroke-linecap:butt;stroke-linejoin:miter;stroke-opacity:1"
       d="m 133.53628,102.13197 c -9.31305,0.0978 -12.29772,-0.88547 -17.57589,-6.614579 L 105.18806,101.565 c 7.10081,9.67146 5.08495,15.03889 -2.07886,16.44197 7.11491,20.37831 0.67638,18.98916 -2.26786,54.80655 l 32.88393,-0.37798 z"
       id="path849-2"
       inkscape:connector-curvature="0"
       sodipodi:nodetypes="ccccccc" />
    <path
       style="fill:none;stroke:#000000;stroke-width:0.26458332px;stroke-linecap:butt;stroke-linejoin:miter;stroke-opacity:1"
       d="m 86.498578,101.4515 -11.90625,-6.236606 c -2.109954,4.575808 -4.255228,9.231546 -9.827379,9.449406 l -0.188989,68.98064 28.537202,0.189 c -0.063,-32.19099 -8.267629,-46.46519 -3.401786,-56.31845 -8.460327,-1.99585 -6.639732,-9.74723 -3.212798,-16.06399 z"
       id="path851-6"
       inkscape:connector-curvature="0"
       sodipodi:nodetypes="ccccccc" />
    <path
       style="fill:none;stroke:#000000;stroke-width:0.26458332px;stroke-linecap:butt;stroke-linejoin:miter;stroke-opacity:1"
       d="m 159.27857,89.208071 3.96875,-30.238096 c -6.56864,-2.275726 -13.81413,-9.212333 -21.73364,-9.260416 -7.45921,0.112573 -11.99565,7.264202 -19.84374,9.071428 l 5.66964,30.616071 z"
       id="path872-8"
       inkscape:connector-curvature="0"
       sodipodi:nodetypes="cccccc" />
  </g>
</svg>
